<svg width="414" height="76" viewBox="0 0 414 76" fill="none" xmlns="http://www.w3.org/2000/svg">
<path d="M188.181 30.3131L189.075 31.4627L183.451 35.8355C184.613 36.3347 185.908 36.4348 187.133 36.12C188.359 35.8053 189.445 35.0934 190.223 34.0958L191.398 34.9544L191.347 35.022C190.684 35.8778 189.833 36.5691 188.86 37.042C187.887 37.5148 186.817 37.7566 185.735 37.7483C184.581 37.7472 183.443 37.4772 182.411 36.9596L181.757 36.6314C181.646 36.5765 181.552 36.4946 181.482 36.3932C181.412 36.2919 181.369 36.1745 181.357 36.052C181.345 35.9295 181.364 35.806 181.413 35.6929C181.461 35.5798 181.538 35.4809 181.635 35.4055L188.181 30.3131Z" fill="white"/>
<path d="M184.99 19.2466H197.359C198.607 19.2508 199.853 19.3726 201.079 19.6104C201.594 19.3221 202.187 19.2021 202.774 19.2674C203.361 19.3326 203.913 19.5797 204.353 19.9742H212.638V19.9902C213.208 20.023 213.763 20.1813 214.264 20.4538C214.765 20.7262 215.2 21.106 215.537 21.5661C215.989 22.1955 216.288 22.9206 216.412 23.6849C216.537 24.4491 216.482 25.2318 216.254 25.9716L215.217 30.1189C215.911 30.0246 216.549 29.6822 217.011 29.155C217.473 28.6277 217.729 27.9511 217.731 27.25V17.0639H219.186V27.25C219.186 28.4039 218.729 29.5109 217.916 30.3289C217.102 31.147 215.997 31.6095 214.843 31.6155L214.166 34.3265L215.56 35.6048C215.58 35.6237 215.599 35.6434 215.617 35.6638C215.996 36.0929 216.204 36.6457 216.203 37.2179C216.203 37.8534 215.951 38.463 215.502 38.9131C215.054 39.3631 214.445 39.617 213.809 39.6189C213.66 39.6189 213.513 39.6109 213.366 39.6051V39.6189H203.136C202.709 43.168 199.241 44.597 199.084 44.6603C198.973 44.7045 198.854 44.721 198.736 44.7083C198.618 44.6956 198.504 44.6541 198.406 44.5875C198.307 44.5208 198.227 44.4309 198.171 44.3257C198.115 44.2206 198.086 44.1034 198.086 43.9844V39.6189H197.075C196.768 39.6189 196.466 39.6342 196.176 39.6524C196.429 40.7124 196.457 41.8134 196.26 42.885C196.062 43.9567 195.644 44.9754 195.031 45.8761C194.963 45.9664 194.875 46.0398 194.774 46.0903C194.673 46.1408 194.561 46.1671 194.448 46.1671C194.433 46.1671 194.419 46.1671 194.403 46.1671C194.283 46.1598 194.167 46.1227 194.064 46.0592C193.962 45.9957 193.877 45.9078 193.817 45.8033L191.152 41.1395C190.555 41.4672 189.987 41.8436 189.452 42.2651C189.723 44.1114 190.634 45.8037 192.026 47.0465C193.418 48.2892 195.203 49.0035 197.068 49.0644L200.727 45.4053C201.369 44.761 202.18 44.3106 203.066 44.1058C203.952 43.9009 204.878 43.9499 205.738 44.2472C206.598 44.5444 207.356 45.0778 207.927 45.7863C208.497 46.4948 208.857 47.3498 208.964 48.2531C208.989 48.4444 209.001 48.6371 209 48.8301V55.8731C208.999 57.1578 208.488 58.3895 207.579 59.298C206.671 60.2064 205.439 60.7174 204.154 60.7188H203.296C202.639 60.7174 201.99 60.5835 201.387 60.3251L197.2 58.536C195.784 58.5237 194.374 58.3595 192.993 58.0463V58.536C192.993 59.1149 192.763 59.6701 192.354 60.0794C191.945 60.4888 191.389 60.7188 190.811 60.7188H190.083C188.154 60.7166 186.305 59.9494 184.941 58.5854C183.576 57.2214 182.809 55.372 182.807 53.4429V52.0605C180.327 49.3439 178.671 45.9774 178.033 42.3546C176.418 40.4362 175.532 38.0088 175.531 35.5008V28.7052C175.53 27.4628 175.774 26.2324 176.249 25.0844C176.724 23.9364 177.421 22.8933 178.3 22.0148C179.178 21.1363 180.221 20.4396 181.369 19.9646C182.517 19.4896 183.747 19.2456 184.99 19.2466ZM178.833 32.3431H176.986V33.7982H178.385C178.514 33.3086 178.66 32.8233 178.833 32.3431ZM179.43 30.8879C179.648 30.3895 179.894 29.9057 180.152 29.4327H176.986V30.8879H179.43ZM181.034 27.9776C181.369 27.4755 181.72 26.9881 182.096 26.5224H177.288C177.154 26.9982 177.064 27.4853 177.02 27.9776H181.034ZM183.396 25.0673C183.906 24.5527 184.445 24.0669 185.009 23.6121H178.824C178.452 24.0604 178.13 24.5484 177.864 25.0673H183.396ZM184.99 20.7018C183.346 20.7044 181.742 21.2124 180.397 22.1569H187.07C187.984 21.5941 188.943 21.1074 189.937 20.7018H184.99ZM202.452 20.7018C202.164 20.7018 201.883 20.7871 201.643 20.947C201.404 21.1069 201.218 21.3342 201.107 21.6001C200.997 21.866 200.968 22.1585 201.025 22.4408C201.081 22.7231 201.219 22.9824 201.423 23.1859C201.626 23.3894 201.886 23.528 202.168 23.5841C202.45 23.6403 202.743 23.6115 203.009 23.5013C203.275 23.3912 203.502 23.2047 203.662 22.9654C203.822 22.7261 203.907 22.4447 203.907 22.1569C203.907 21.771 203.754 21.4009 203.481 21.128C203.208 20.8551 202.838 20.7018 202.452 20.7018ZM213.403 31.3747C212.544 31.0791 211.798 30.523 211.27 29.7837C210.741 29.0444 210.457 28.1587 210.455 27.25V23.6121C210.455 23.4682 210.498 23.3276 210.578 23.208C210.658 23.0883 210.771 22.9951 210.904 22.94C211.037 22.885 211.184 22.8706 211.325 22.8986C211.466 22.9267 211.595 22.996 211.697 23.0977L213.88 25.2804L212.851 26.3092L211.91 25.3685V27.25C211.912 27.834 212.089 28.4041 212.419 28.8862C212.748 29.3682 213.215 29.7399 213.759 29.953L214.851 25.5875C215.016 25.0605 215.059 24.5027 214.976 23.9566C214.893 23.4106 214.687 22.8906 214.373 22.4363C214.142 22.1182 213.839 21.8604 213.487 21.6851C213.136 21.5097 212.748 21.422 212.355 21.4293C211.055 21.4306 209.791 21.8607 208.761 22.653C207.73 23.4453 206.989 24.5555 206.654 25.8116L206.298 27.1154L212.945 33.2089L213.403 31.3747ZM214.748 37.2179C214.749 37.0089 214.676 36.8064 214.542 36.646L205.864 28.6928L204.707 32.9033C207.69 36.5383 210.509 38.1637 213.809 38.1637C213.933 38.1645 214.056 38.1405 214.171 38.0932C214.286 38.0458 214.39 37.9761 214.477 37.888C214.565 37.7999 214.634 37.6953 214.68 37.5802C214.727 37.4651 214.75 37.3419 214.748 37.2179ZM199.542 42.7417C200.085 42.3881 200.552 41.9299 200.916 41.3937C201.28 40.8575 201.534 40.2542 201.662 39.6189H199.542V42.7417ZM194.434 43.948C194.99 42.653 195.094 41.2085 194.729 39.8473C194.518 39.891 194.307 39.9383 194.112 39.987C193.987 40.0205 193.872 40.0452 193.799 40.0598C193.503 40.142 193.207 40.2461 192.905 40.3508C192.854 40.3676 192.793 40.3821 192.793 40.3828C192.684 40.425 192.583 40.4738 192.475 40.5182L194.434 43.948ZM188.201 43.454C187.729 43.9284 187.291 44.4358 186.891 44.9724C186.707 45.238 186.539 45.5138 186.382 45.7902C186.357 45.8317 186.334 45.8674 186.309 45.9103L186.302 45.9183L186.297 45.9263C186.137 46.21 185.992 46.5025 185.855 46.7994L185.787 46.9384C185.661 47.2156 185.554 47.5022 185.451 47.7867L185.369 47.997C185.275 48.2749 185.197 48.5601 185.123 48.8453L185.075 49.012L185.05 49.1029C185.046 49.1196 185.044 49.1349 185.039 49.1517C184.955 49.5104 184.884 49.8792 184.831 50.2394L184.713 51.0696L184.603 51.8539C187.995 55.2158 192.583 57.0954 197.359 57.0808C197.745 57.0808 198.115 56.9275 198.388 56.6546C198.661 56.3817 198.814 56.0116 198.814 55.6257V51.9878C198.814 51.6018 198.661 51.2317 198.388 50.9588C198.115 50.6859 197.745 50.5326 197.359 50.5326C195.262 50.5399 193.223 49.8476 191.565 48.5655C189.906 47.2834 188.722 45.4846 188.201 43.454ZM187.454 58.6291C187.955 58.8845 188.49 59.0651 189.043 59.1654C188.769 58.2908 188.612 57.3839 188.575 56.4682C188.113 56.2361 187.659 55.9887 187.215 55.7195C187.13 56.696 187.211 57.6797 187.454 58.6291ZM207.332 57.019C207.469 56.6524 207.541 56.2646 207.545 55.8731V54.1705H200.269V55.5064L207.332 57.019ZM200.167 51.2602C200.232 51.4973 200.266 51.7419 200.269 51.9878V52.7154H207.545V49.2957L200.167 51.2602ZM204.154 45.4395C203.256 45.4435 202.395 45.8008 201.758 46.4341L198.747 49.4456C198.999 49.5809 199.231 49.7525 199.433 49.9549L207.394 47.8311C207.181 47.1383 206.751 46.5321 206.168 46.1016C205.585 45.6711 204.879 45.439 204.154 45.4395ZM201.956 58.9864C202.38 59.1664 202.835 59.2606 203.296 59.2636H204.154C205.022 59.2621 205.856 58.9259 206.483 58.325L199.948 56.9259C199.775 57.2691 199.535 57.5746 199.243 57.8244L201.956 58.9864ZM191.538 58.536V57.6629C191.048 57.5116 190.568 57.3355 190.092 57.1463C190.197 57.8665 190.37 58.5753 190.607 59.2636H190.811C191.004 59.2636 191.189 59.1869 191.325 59.0505C191.461 58.914 191.538 58.729 191.538 58.536ZM185.763 57.3304C185.662 56.5003 185.709 55.6586 185.902 54.845C185.334 54.4345 184.788 53.9942 184.267 53.5259C184.286 54.9339 184.818 56.2867 185.763 57.3304ZM183.329 50.4599L183.389 50.0291C183.436 49.7003 183.509 49.3605 183.586 49.0156C183.605 48.9297 183.615 48.8424 183.635 48.7573C183.641 48.7318 183.649 48.7078 183.656 48.6846C183.666 48.6467 183.675 48.6082 183.685 48.5725L183.712 48.4786C183.794 48.1614 183.885 47.8515 184.003 47.4906L184.08 47.2992C184.195 46.9755 184.319 46.651 184.454 46.3534C184.473 46.3083 184.495 46.2661 184.535 46.1904C184.688 45.8608 184.849 45.5319 185.012 45.2445C185.02 45.23 185.03 45.2184 185.038 45.2045L185.078 45.139C185.26 44.8218 185.442 44.5381 185.626 44.2609C185.648 44.2281 185.667 44.1917 185.689 44.159L185.71 44.127C186.071 43.6067 186.47 43.1133 186.903 42.6507L188.102 41.5011L188.159 41.4444L188.169 41.4364L188.204 41.4029C189.103 40.6461 190.096 40.0081 191.158 39.5047C191.192 39.4869 191.228 39.4716 191.265 39.4588C191.589 39.306 191.926 39.1678 192.264 39.0339L192.336 39.0092L192.426 38.983C192.748 38.868 193.081 38.7538 193.458 38.6497C193.552 38.6308 193.641 38.6119 193.746 38.5843C194.021 38.5159 194.304 38.4468 194.598 38.3915C194.724 38.3689 194.851 38.3543 194.976 38.3398L195.131 38.3209H195.148L195.181 38.3165L195.389 38.2845C195.527 38.2627 195.662 38.2416 195.826 38.2241C196.029 38.2088 196.237 38.2074 196.443 38.1979C195.268 37.3879 194.332 36.2786 193.731 34.9849C193.129 33.6912 192.885 32.2602 193.023 30.8402C193.161 29.4203 193.676 28.0631 194.515 26.9094C195.355 25.7556 196.487 24.8473 197.795 24.2786L198.377 25.6122C196.998 26.2133 195.867 27.2715 195.176 28.6085C194.485 29.9455 194.275 31.4798 194.583 32.9532C194.89 34.4265 195.696 35.749 196.864 36.698C198.032 37.647 199.492 38.1646 200.997 38.1637H203.464C202.807 37.7363 202.211 37.2224 201.691 36.6358L200.969 35.81C200.283 35.025 199.797 34.0857 199.552 33.0722C199.307 32.0587 199.311 31.001 199.563 29.9893L200.975 30.3415C200.78 31.1257 200.777 31.9455 200.967 32.7309C201.157 33.5164 201.534 34.2443 202.066 34.8525L202.788 35.6776C203.472 36.4587 204.316 37.0847 205.262 37.5134C206.207 37.9422 207.234 38.1639 208.272 38.1637H208.408C206.446 36.9441 204.727 35.3714 203.339 33.5254C203.267 33.4356 203.218 33.3302 203.194 33.2176C203.171 33.1051 203.175 32.9886 203.206 32.8778L205.249 25.431C205.677 23.8274 206.638 22.4166 207.972 21.4293H205.259C205.324 21.6664 205.359 21.911 205.362 22.1569C205.362 22.9288 205.056 23.669 204.51 24.2148C203.964 24.7606 203.224 25.0673 202.452 25.0673C201.68 25.0673 200.94 24.7606 200.394 24.2148C199.848 23.669 199.542 22.9288 199.542 22.1569C199.544 21.7127 199.65 21.2751 199.85 20.8786C199.025 20.763 198.192 20.704 197.359 20.7018C193.766 20.6942 190.252 21.7541 187.263 23.7469C184.273 25.7397 181.943 28.5757 180.568 31.8949C180.556 31.9239 180.542 31.9521 180.526 31.9793C179.627 34.1726 179.166 36.5208 179.169 38.8913C179.167 39.9049 179.253 40.9168 179.428 41.9151C179.947 45.0591 181.293 48.0083 183.329 50.4599ZM177.722 39.0841C177.722 39.0194 177.714 38.9561 177.714 38.8906C177.715 37.67 177.828 36.4522 178.054 35.2527H176.986V35.5C176.989 36.7322 177.239 37.9512 177.722 39.0848V39.0841Z" fill="white"/>
<path d="M185.811 29.5353L185.582 29.8555L184.398 29.01L184.626 28.6899C186.121 26.5972 188.158 24.9526 190.519 23.9337L191.102 25.2703C188.982 26.1832 187.153 27.658 185.811 29.5353Z" fill="white"/>
<path d="M194.539 24.3339C193.84 24.4218 193.149 24.5678 192.474 24.7704L192.057 23.3764C192.809 23.1516 193.579 22.9895 194.358 22.8918L194.539 24.3339Z" fill="white"/>
<path d="M254.152 46.168C253.048 46.168 252.056 45.976 251.176 45.592C250.312 45.192 249.632 44.648 249.136 43.96C248.64 43.256 248.384 42.448 248.368 41.536H250.696C250.776 42.32 251.096 42.984 251.656 43.528C252.232 44.056 253.064 44.32 254.152 44.32C255.192 44.32 256.008 44.064 256.6 43.552C257.208 43.024 257.512 42.352 257.512 41.536C257.512 40.896 257.336 40.376 256.984 39.976C256.632 39.576 256.192 39.272 255.664 39.064C255.136 38.856 254.424 38.632 253.528 38.392C252.424 38.104 251.536 37.816 250.864 37.528C250.208 37.24 249.64 36.792 249.16 36.184C248.696 35.56 248.464 34.728 248.464 33.688C248.464 32.776 248.696 31.968 249.16 31.264C249.624 30.56 250.272 30.016 251.104 29.632C251.952 29.248 252.92 29.056 254.008 29.056C255.576 29.056 256.856 29.448 257.848 30.232C258.856 31.016 259.424 32.056 259.552 33.352H257.152C257.072 32.712 256.736 32.152 256.144 31.672C255.552 31.176 254.768 30.928 253.792 30.928C252.88 30.928 252.136 31.168 251.56 31.648C250.984 32.112 250.696 32.768 250.696 33.616C250.696 34.224 250.864 34.72 251.2 35.104C251.552 35.488 251.976 35.784 252.472 35.992C252.984 36.184 253.696 36.408 254.608 36.664C255.712 36.968 256.6 37.272 257.272 37.576C257.944 37.864 258.52 38.32 259 38.944C259.48 39.552 259.72 40.384 259.72 41.44C259.72 42.256 259.504 43.024 259.072 43.744C258.64 44.464 258 45.048 257.152 45.496C256.304 45.944 255.304 46.168 254.152 46.168ZM269.582 44.104H277.742V46H266.99V44.272L275.102 31.168H267.086V29.272H277.694V31L269.582 44.104ZM287.702 29.272V46H285.518V29.272H287.702ZM308.897 34.12C308.433 33.144 307.761 32.392 306.881 31.864C306.001 31.32 304.977 31.048 303.809 31.048C302.641 31.048 301.585 31.32 300.641 31.864C299.713 32.392 298.977 33.16 298.433 34.168C297.905 35.16 297.641 36.312 297.641 37.624C297.641 38.936 297.905 40.088 298.433 41.08C298.977 42.072 299.713 42.84 300.641 43.384C301.585 43.912 302.641 44.176 303.809 44.176C305.441 44.176 306.785 43.688 307.841 42.712C308.897 41.736 309.513 40.416 309.689 38.752H303.017V36.976H312.017V38.656C311.889 40.032 311.457 41.296 310.721 42.448C309.985 43.584 309.017 44.488 307.817 45.16C306.617 45.816 305.281 46.144 303.809 46.144C302.257 46.144 300.841 45.784 299.561 45.064C298.281 44.328 297.265 43.312 296.513 42.016C295.777 40.72 295.409 39.256 295.409 37.624C295.409 35.992 295.777 34.528 296.513 33.232C297.265 31.92 298.281 30.904 299.561 30.184C300.841 29.448 302.257 29.08 303.809 29.08C305.585 29.08 307.153 29.52 308.513 30.4C309.889 31.28 310.889 32.52 311.513 34.12H308.897ZM321.888 44.224H327.744V46H319.704V29.272H321.888V44.224ZM337.048 29.272V46H334.864V29.272H337.048ZM358.242 34.12C357.778 33.144 357.106 32.392 356.226 31.864C355.346 31.32 354.322 31.048 353.154 31.048C351.986 31.048 350.93 31.32 349.986 31.864C349.058 32.392 348.322 33.16 347.778 34.168C347.25 35.16 346.986 36.312 346.986 37.624C346.986 38.936 347.25 40.088 347.778 41.08C348.322 42.072 349.058 42.84 349.986 43.384C350.93 43.912 351.986 44.176 353.154 44.176C354.786 44.176 356.13 43.688 357.186 42.712C358.242 41.736 358.858 40.416 359.034 38.752H352.362V36.976H361.362V38.656C361.234 40.032 360.802 41.296 360.066 42.448C359.33 43.584 358.362 44.488 357.162 45.16C355.962 45.816 354.626 46.144 353.154 46.144C351.602 46.144 350.186 45.784 348.906 45.064C347.626 44.328 346.61 43.312 345.858 42.016C345.122 40.72 344.754 39.256 344.754 37.624C344.754 35.992 345.122 34.528 345.858 33.232C346.61 31.92 347.626 30.904 348.906 30.184C350.186 29.448 351.602 29.08 353.154 29.08C354.93 29.08 356.498 29.52 357.858 30.4C359.234 31.28 360.234 32.52 360.858 34.12H358.242ZM371.234 31.048V36.64H377.33V38.44H371.234V44.2H378.05V46H369.05V29.248H378.05V31.048H371.234ZM396.45 29.272V31.048H391.89V46H389.706V31.048H385.122V29.272H396.45Z" fill="white"/>
<path d="M11.304 29.272V31.048H4.032V36.688H9.936V38.464H4.032V46H1.848V29.272H11.304ZM20.9257 29.272V46H18.7417V29.272H20.9257ZM34.752 46.168C33.648 46.168 32.656 45.976 31.776 45.592C30.912 45.192 30.232 44.648 29.736 43.96C29.24 43.256 28.984 42.448 28.968 41.536H31.296C31.376 42.32 31.696 42.984 32.256 43.528C32.832 44.056 33.664 44.32 34.752 44.32C35.792 44.32 36.608 44.064 37.2 43.552C37.808 43.024 38.112 42.352 38.112 41.536C38.112 40.896 37.936 40.376 37.584 39.976C37.232 39.576 36.792 39.272 36.264 39.064C35.736 38.856 35.024 38.632 34.128 38.392C33.024 38.104 32.136 37.816 31.464 37.528C30.808 37.24 30.24 36.792 29.76 36.184C29.296 35.56 29.064 34.728 29.064 33.688C29.064 32.776 29.296 31.968 29.76 31.264C30.224 30.56 30.872 30.016 31.704 29.632C32.552 29.248 33.52 29.056 34.608 29.056C36.176 29.056 37.456 29.448 38.448 30.232C39.456 31.016 40.024 32.056 40.152 33.352H37.752C37.672 32.712 37.336 32.152 36.744 31.672C36.152 31.176 35.368 30.928 34.392 30.928C33.48 30.928 32.736 31.168 32.16 31.648C31.584 32.112 31.296 32.768 31.296 33.616C31.296 34.224 31.464 34.72 31.8 35.104C32.152 35.488 32.576 35.784 33.072 35.992C33.584 36.184 34.296 36.408 35.208 36.664C36.312 36.968 37.2 37.272 37.872 37.576C38.544 37.864 39.12 38.32 39.6 38.944C40.08 39.552 40.32 40.384 40.32 41.44C40.32 42.256 40.104 43.024 39.672 43.744C39.24 44.464 38.6 45.048 37.752 45.496C36.904 45.944 35.904 46.168 34.752 46.168ZM61.2219 29.272V46H59.0379V38.416H50.5179V46H48.3339V29.272H50.5179V36.616H59.0379V29.272H61.2219ZM71.9351 44.224H77.7911V46H69.7511V29.272H71.9351V44.224ZM87.0945 29.272V46H84.9105V29.272H87.0945ZM108.289 34.12C107.825 33.144 107.153 32.392 106.273 31.864C105.393 31.32 104.369 31.048 103.201 31.048C102.033 31.048 100.977 31.32 100.033 31.864C99.1048 32.392 98.3688 33.16 97.8248 34.168C97.2968 35.16 97.0328 36.312 97.0328 37.624C97.0328 38.936 97.2968 40.088 97.8248 41.08C98.3688 42.072 99.1048 42.84 100.033 43.384C100.977 43.912 102.033 44.176 103.201 44.176C104.833 44.176 106.177 43.688 107.233 42.712C108.289 41.736 108.905 40.416 109.081 38.752H102.409V36.976H111.409V38.656C111.281 40.032 110.849 41.296 110.113 42.448C109.377 43.584 108.409 44.488 107.209 45.16C106.009 45.816 104.673 46.144 103.201 46.144C101.649 46.144 100.233 45.784 98.9528 45.064C97.6728 44.328 96.6568 43.312 95.9048 42.016C95.1688 40.72 94.8008 39.256 94.8008 37.624C94.8008 35.992 95.1688 34.528 95.9048 33.232C96.6568 31.92 97.6728 30.904 98.9528 30.184C100.233 29.448 101.649 29.08 103.201 29.08C104.977 29.08 106.545 29.52 107.905 30.4C109.281 31.28 110.281 32.52 110.905 34.12H108.289ZM121.28 31.048V36.64H127.376V38.44H121.28V44.2H128.096V46H119.096V29.248H128.096V31.048H121.28ZM146.497 29.272V31.048H141.937V46H139.753V31.048H135.169V29.272H146.497Z" fill="white"/>
<circle cx="197" cy="38" r="37" stroke="white" stroke-width="2"/>
</svg>
